<svg xmlns="http://www.w3.org/2000/svg" viewBox="0 0 277.8 277.8"><defs><style>.cls-1{fill:#cfff03;}</style></defs><g id="symbol"><path class="cls-1" d="M225.43,170.45l-69.59-25.34,54.7-31.59V100.67l-55,31.75,37.14-64.33-9.64-5.56L145.9,126.88V45.59H134.77v81.29L116.39,95.05l-9.63,5.56,19.44,33.67L42.47,103.82A100.4,100.4,0,0,1,235.2,86.45l13.66-7.91A116,116,0,0,0,30.73,87c-.37,1.23-.68,2.41-1.05,3.64l20.15,32.27,4.26,1.54,70.65,25.72h.06L67.32,183.37v12.86l57.82-33.39L92.66,219.09l9.63,5.56,32.48-56.25v63.89H145.9V168.4l15.44,26.74,9.63-5.56L154.49,161l0,0,82.33,30v63.23H40.92V198.64l-15.45,8.9V238l21.08,33.81H231.43l20.89-33.5v-30L229.7,172Z"/></g></svg>